# xmcd
#
# Track frame offsets:
#	150
#	15819
#	35877
#	53811
#	67729
#	87902
#	106595
#	123699
#	148206
#	162579
#	176888
#	190274
#	204231
#
# Disc length: 3003 seconds
#
# Revision: 0
# Processed by: cddbd v1.5.2PL0 Copyright (c) Steve Scherf et al.
# Submitted via: audiograbber 1.83.01
#
DISCID=b10bb90d
DTITLE=Dar Williams - My Better Self
DYEAR=2005
DGENRE=Folk/Rock
TTITLE0=Teen For God
TTITLE1=I'll Miss You Till I Meet You
TTITLE2=Echoes
TTITLE3=Blue Light Of The Flame
TTITLE4=Everybody Knows This Is Nowhere [featuring Marshall Crenshaw]
TTITLE5=Two Sides Of The River [featuring Soulive]
TTITLE6=Empire
TTITLE7=Comfortably Numb [featuring Ani DiFranco]
TTITLE8=So Close To My Heart
TTITLE9=Beautiful Enemy
TTITLE10=Liar
TTITLE11=You Rise And Meet The Day
TTITLE12=The Hudson
EXTD=
EXTT0=
EXTT1=
EXTT2=
EXTT3=
EXTT4=
EXTT5=
EXTT6=
EXTT7=
EXTT8=
EXTT9=
EXTT10=
EXTT11=
EXTT12=
PLAYORDER=
